<?xml version="1.0" encoding="utf-8"?>
<!-- Generator: Adobe Illustrator 26.0.2, SVG Export Plug-In . SVG Version: 6.00 Build 0)  -->
<svg version="1.1" id="Layer_1" xmlns="http://www.w3.org/2000/svg" xmlns:xlink="http://www.w3.org/1999/xlink" x="0px" y="0px"
	 viewBox="0 0 292.56 73.43" style="enable-background:new 0 0 292.56 73.43;" xml:space="preserve">
<style type="text/css">
	.st0{fill:#FEB9A8;}
</style>
<path class="st0" d="M130.26,61.61c-0.08,3.59-1.38,6.47-3.88,8.6c-2.55,2.13-5.68,3.21-9.48,3.21c-3.13,0-5.85-0.79-8.14-2.38
	c-2.3-1.54-4.01-3.59-5.09-6.05c-1.13-2.46-1.67-5.22-1.67-8.18c0-4.59,1.34-8.43,4.05-11.57c2.67-3.13,6.39-4.68,11.19-4.68
	c3.59,0,6.55,0.92,8.85,2.71c2.3,1.84,3.59,4.47,3.97,7.89H126c-0.29-2.17-1.21-3.88-2.84-5.18c-1.63-1.25-3.67-1.88-6.14-1.88
	c-3.51,0-6.22,1.21-8.14,3.67c-1.96,2.46-2.92,5.43-2.92,8.98c0,3.63,1,6.72,3.01,9.23c1.96,2.55,4.76,3.84,8.31,3.84
	c2.59,0,4.72-0.71,6.39-2.17c1.63-1.42,2.51-3.42,2.55-6.05H130.26z"/>
<polygon class="st0" points="134.26,41.32 154.38,41.32 154.38,44.75 138.1,44.75 138.1,55.06 153.63,55.06 153.63,58.52 
	138.1,58.52 138.1,69.17 155.22,69.17 155.22,72.64 134.26,72.64 "/>
<polygon class="st0" points="178.89,72.64 162.73,47.21 162.73,72.64 159.02,72.64 159.02,41.32 163.61,41.32 179.14,66.08 
	179.14,41.32 182.86,41.32 182.86,72.64 "/>
<polygon class="st0" points="200.68,44.75 200.68,72.64 196.84,72.64 196.84,44.75 186.19,44.75 186.19,41.32 211.32,41.32 
	211.32,44.75 "/>
<path class="st0" d="M225.34,59.32h-6.93v13.32h-3.76V41.32h11.61c3.09,0,5.51,0.83,7.26,2.51c1.71,1.67,2.59,3.67,2.59,6.01
	c0,1.96-0.58,3.76-1.71,5.39c-1.13,1.63-2.8,2.76-4.93,3.38l9.23,14.03h-4.51L225.34,59.32z M225.97,55.94c2,0,3.59-0.58,4.72-1.75
	c1.13-1.17,1.71-2.55,1.71-4.13c0-1.46-0.5-2.71-1.5-3.76c-1.04-1.04-2.51-1.54-4.38-1.54h-8.1v11.19H225.97z"/>
<path class="st0" d="M248.26,64.16l-3.3,8.47h-4.05l12.52-31.31h3.84l12.94,31.31h-4.26l-3.38-8.47H248.26z M255.31,45.87
	l-5.72,14.82h11.65L255.31,45.87z"/>
<polygon class="st0" points="272.9,72.64 272.9,41.32 276.74,41.32 276.74,69.17 292.56,69.17 292.56,72.64 "/>
<polygon class="st0" points="115.02,4.17 115.02,32.06 111.18,32.06 111.18,4.17 100.53,4.17 100.53,0.75 125.67,0.75 125.67,4.17 
	"/>
<path class="st0" d="M139.69,18.75h-6.93v13.32H129V0.75h11.61c3.09,0,5.51,0.84,7.26,2.51c1.71,1.67,2.59,3.67,2.59,6.01
	c0,1.96-0.58,3.76-1.71,5.38c-1.13,1.63-2.8,2.76-4.93,3.38l9.23,14.03h-4.51L139.69,18.75z M140.31,15.36c2,0,3.59-0.58,4.72-1.75
	c1.13-1.17,1.71-2.55,1.71-4.13c0-1.46-0.5-2.71-1.5-3.76c-1.04-1.04-2.51-1.54-4.38-1.54h-8.1v11.19H140.31z"/>
<rect x="155.74" y="0.75" class="st0" width="3.84" height="31.31"/>
<path class="st0" d="M192.08,21.04c-0.08,3.59-1.38,6.47-3.88,8.6c-2.55,2.13-5.68,3.21-9.48,3.21c-3.13,0-5.84-0.79-8.14-2.38
	c-2.3-1.54-4.01-3.59-5.09-6.05c-1.13-2.46-1.67-5.22-1.67-8.18c0-4.59,1.34-8.43,4.05-11.57C170.54,1.54,174.26,0,179.06,0
	c3.59,0,6.55,0.92,8.85,2.71c2.3,1.84,3.59,4.47,3.97,7.89h-4.05c-0.29-2.17-1.21-3.88-2.84-5.18c-1.63-1.25-3.67-1.88-6.14-1.88
	c-3.51,0-6.22,1.21-8.14,3.67c-1.96,2.46-2.92,5.43-2.92,8.98c0,3.63,1,6.72,3.01,9.23c1.96,2.55,4.76,3.84,8.31,3.84
	c2.59,0,4.72-0.71,6.39-2.17c1.63-1.42,2.51-3.42,2.55-6.05H192.08z"/>
<rect x="196.79" y="0.75" class="st0" width="3.84" height="31.31"/>
<polygon class="st0" points="218.47,4.17 218.47,32.06 214.63,32.06 214.63,4.17 203.99,4.17 203.99,0.75 229.12,0.75 229.12,4.17 
	"/>
<polygon class="st0" points="242.25,32.06 242.25,19.83 231.23,0.75 235.78,0.75 244.38,16.49 252.98,0.75 257.2,0.75 246.18,19.83 
	246.18,32.06 "/>
<rect x="25.13" y="69.21" class="st0" width="25.13" height="3.42"/>
<rect x="12.57" y="34.98" class="st0" width="50.27" height="3.42"/>
<rect y="0.75" class="st0" width="75.4" height="3.42"/>
</svg>
